<svg xmlns="http://www.w3.org/2000/svg" xmlns:xlink="http://www.w3.org/1999/xlink" width="500" zoomAndPan="magnify" viewBox="0 0 375 374.999991" height="500" preserveAspectRatio="xMidYMid meet" version="1.0"><defs><clipPath id="de897eef31"><path d="M 0.367188 171 L 375 171 L 375 368.25 L 0.367188 368.25 Z M 0.367188 171 " clip-rule="nonzero"/></clipPath></defs><g clip-path="url(#de897eef31)"><path fill="#00ccff" d="M 64.109375 172.023438 C 81.632812 172.023438 99.148438 172.023438 116.671875 172.023438 C 124.445312 172.023438 127.378906 174.898438 127.710938 182.742188 C 129.050781 214.609375 153.875 239.570312 185.671875 241.007812 C 216.148438 242.382812 243.742188 218.828125 247.144531 188.527344 C 247.394531 186.320312 247.710938 184.113281 247.804688 181.890625 C 248.082031 175.296875 251.289062 172.082031 258.023438 172.03125 C 266.78125 171.964844 275.546875 172.015625 284.304688 172.015625 C 310.730469 172.015625 337.144531 172.015625 363.566406 172.015625 C 371.90625 172.015625 374.933594 175.003906 374.957031 183.269531 C 374.992188 192.3125 375.007812 201.34375 374.949219 210.386719 C 374.898438 217.273438 372.167969 220.089844 365.332031 221.023438 C 354.886719 222.453125 344.472656 224.132812 334.027344 225.503906 C 331.261719 225.863281 330.160156 227.125 329.355469 229.683594 C 327.519531 235.5 325.253906 241.191406 322.328125 246.554688 C 320.933594 249.101562 321.125 250.925781 322.914062 253.238281 C 329.296875 261.480469 335.464844 269.878906 341.671875 278.25 C 346.042969 284.132812 345.800781 287.8125 340.738281 292.882812 C 327.082031 306.5625 313.421875 320.226562 299.742188 333.890625 C 294.601562 339.019531 290.941406 339.296875 285.117188 334.96875 C 276.644531 328.667969 268.144531 322.398438 259.761719 315.972656 C 257.714844 314.402344 256.078125 314.21875 253.78125 315.421875 C 248.003906 318.453125 241.980469 320.960938 235.730469 322.851562 C 233.582031 323.5 232.761719 324.605469 232.460938 326.859375 C 231.023438 337.582031 229.3125 348.269531 227.816406 358.984375 C 226.945312 365.210938 223.945312 368.25 217.6875 368.277344 C 197.808594 368.359375 177.917969 368.359375 158.039062 368.277344 C 151.535156 368.25 148.621094 365.257812 147.71875 358.726562 C 146.230469 348.011719 144.515625 337.324219 143.046875 326.609375 C 142.761719 324.539062 141.976562 323.5 139.996094 322.890625 C 133.621094 320.9375 127.460938 318.386719 121.570312 315.277344 C 119.390625 314.125 117.875 314.375 115.972656 315.832031 C 107.355469 322.398438 98.65625 328.875 89.933594 335.300781 C 84.667969 339.179688 80.816406 338.886719 76.269531 334.347656 C 62.289062 320.402344 48.324219 306.445312 34.386719 292.457031 C 29.832031 287.894531 29.582031 284.050781 33.464844 278.8125 C 39.835938 270.210938 46.167969 261.589844 52.703125 253.121094 C 54.398438 250.917969 54.582031 249.210938 53.273438 246.796875 C 50.289062 241.308594 47.964844 235.492188 46.09375 229.53125 C 45.273438 226.910156 44.019531 225.847656 41.320312 225.496094 C 30.867188 224.132812 20.457031 222.453125 10.019531 221.023438 C 3.464844 220.121094 0.542969 217.199219 0.476562 210.703125 C 0.382812 201.253906 0.375 191.792969 0.476562 182.34375 C 0.550781 175.265625 3.953125 172.039062 11.164062 172.023438 C 28.820312 171.996094 46.476562 172.015625 64.144531 172.023438 Z M 64.503906 189.988281 L 29.039062 189.988281 C 18.015625 189.988281 18.117188 189.988281 18.199219 201.128906 C 18.214844 203.601562 18.933594 204.4375 21.339844 204.761719 C 31.511719 206.160156 41.640625 207.898438 51.816406 209.191406 C 56.824219 209.828125 59.515625 212.492188 60.777344 217.105469 C 63.457031 226.925781 67.292969 236.285156 72.390625 245.082031 C 75.050781 249.671875 74.574219 253.625 71.390625 257.742188 C 65.261719 265.65625 59.429688 273.796875 53.320312 281.71875 C 51.734375 283.78125 51.785156 284.988281 53.691406 286.839844 C 63.132812 296.074219 72.515625 305.386719 81.699219 314.886719 C 83.949219 317.210938 85.292969 316.792969 87.492188 315.09375 C 95.421875 308.988281 103.503906 303.09375 111.484375 297.054688 C 114.875 294.488281 118.410156 293.476562 122.296875 295.691406 C 132 301.207031 142.246094 305.359375 152.949219 308.46875 C 156.828125 309.589844 158.867188 312.246094 159.433594 316.257812 C 160.90625 326.558594 162.558594 336.832031 163.953125 347.144531 C 164.296875 349.648438 165.074219 350.578125 167.765625 350.550781 C 181.109375 350.402344 194.464844 350.425781 207.816406 350.535156 C 210.183594 350.550781 211.167969 350.015625 211.503906 347.476562 C 212.855469 337.296875 214.628906 327.179688 215.933594 317 C 216.566406 312.019531 219.167969 309.253906 223.796875 307.992188 C 233.613281 305.316406 242.984375 301.5 251.78125 296.410156 C 256.371094 293.753906 260.296875 294.128906 264.433594 297.328125 C 272.347656 303.445312 280.46875 309.304688 288.417969 315.378906 C 290.382812 316.882812 291.609375 317.125 293.554688 315.128906 C 302.875 305.570312 312.316406 296.125 321.878906 286.808594 C 323.859375 284.878906 323.671875 283.648438 322.152344 281.667969 C 315.984375 273.613281 309.992188 265.433594 303.859375 257.34375 C 301.304688 253.96875 300.199219 250.433594 302.40625 246.53125 C 307.894531 236.820312 312.089844 226.582031 315.183594 215.878906 C 316.292969 212.023438 318.886719 209.871094 322.914062 209.316406 C 330.75 208.25 338.566406 207.042969 346.394531 205.949219 C 357.910156 204.335938 357.84375 204.363281 357.292969 192.714844 C 357.183594 190.457031 356.398438 189.9375 354.332031 189.949219 C 325.546875 189.996094 296.757812 189.996094 267.96875 189.949219 C 265.796875 189.949219 264.84375 190.523438 264.449219 192.878906 C 257.398438 235.683594 219.609375 263.453125 176.296875 257.769531 C 143.640625 253.480469 115.789062 226.207031 111.125 193.648438 C 110.664062 190.421875 109.4375 189.90625 106.628906 189.929688 C 92.582031 190.039062 78.535156 189.980469 64.488281 189.980469 Z M 64.503906 189.988281 " fill-opacity="1" fill-rule="nonzero"/></g><path fill="#00ccff" d="M 178.753906 103.488281 C 178.753906 88.757812 178.710938 74.023438 178.796875 59.300781 C 178.8125 56.9375 178.160156 55.699219 175.878906 54.605469 C 163.488281 48.703125 156.960938 35.566406 159.875 22.992188 C 163.050781 9.34375 174.457031 0.144531 187.988281 0.320312 C 201.5 0.496094 212.515625 9.5625 215.625 23.066406 C 218.457031 35.351562 212.113281 48.5625 200.265625 54.226562 C 197.363281 55.617188 196.664062 57.21875 196.671875 60.210938 C 196.777344 89.117188 196.746094 118.023438 196.730469 146.925781 C 196.730469 153.664062 193.394531 157.707031 187.90625 157.800781 C 182.472656 157.890625 178.804688 153.9375 178.769531 147.679688 C 178.710938 132.945312 178.753906 118.214844 178.746094 103.488281 Z M 187.894531 18.160156 C 181.863281 18.09375 176.90625 22.898438 176.914062 28.800781 C 176.925781 34.515625 181.71875 39.296875 187.527344 39.371094 C 193.554688 39.453125 198.535156 34.632812 198.507812 28.742188 C 198.484375 22.984375 193.710938 18.226562 187.894531 18.160156 Z M 187.894531 18.160156 " fill-opacity="1" fill-rule="nonzero"/><path fill="#00ccff" d="M 84.050781 124.003906 C 84.050781 116.082031 83.898438 108.144531 84.132812 100.230469 C 84.214844 97.265625 83.105469 95.726562 80.664062 94.363281 C 73.261719 90.253906 65.921875 86.023438 58.660156 81.679688 C 56.273438 80.25 54.652344 80.101562 52.101562 81.855469 C 42 88.824219 31.253906 89.234375 20.824219 82.789062 C 10.335938 76.304688 5.898438 66.304688 7.738281 54.269531 C 9.515625 42.570312 16.628906 34.707031 28.09375 31.304688 C 46.070312 25.976562 64.402344 39.730469 64.085938 58.558594 C 64.011719 63.121094 65.363281 65.417969 69.257812 67.488281 C 78.191406 72.253906 86.816406 77.609375 95.65625 82.558594 C 99.84375 84.898438 101.839844 88.082031 101.808594 92.976562 C 101.671875 111.328125 101.789062 129.6875 101.730469 148.046875 C 101.707031 155.277344 95.621094 159.804688 89.472656 157.207031 C 85.761719 155.644531 84.050781 152.652344 84.066406 148.617188 C 84.089844 140.410156 84.066406 132.203125 84.066406 124.003906 Z M 35.964844 48.085938 C 29.933594 48.019531 24.984375 52.816406 25.011719 58.707031 C 25.035156 64.464844 29.796875 69.195312 35.621094 69.253906 C 41.691406 69.320312 46.601562 64.546875 46.59375 58.625 C 46.578125 52.882812 41.804688 48.144531 35.964844 48.078125 Z M 35.964844 48.085938 " fill-opacity="1" fill-rule="nonzero"/><path fill="#00ccff" d="M 273.75 119.636719 C 273.75 110.460938 273.894531 101.277344 273.691406 92.109375 C 273.585938 87.070312 275.597656 83.792969 279.984375 81.378906 C 288.859375 76.480469 297.449219 71.074219 306.382812 66.320312 C 310.167969 64.304688 311.53125 62.117188 311.40625 57.703125 C 311.011719 43.265625 321.308594 31.808594 336.148438 29.402344 C 348.867188 27.335938 362.304688 36.019531 366.484375 48.988281 C 370.203125 60.519531 366.300781 72.8125 356.574219 80.199219 C 347.023438 87.453125 333.742188 87.972656 323.882812 81.0625 C 321.183594 79.171875 319.363281 78.964844 316.554688 80.71875 C 309.609375 85.054688 302.515625 89.167969 295.285156 93.011719 C 292.246094 94.632812 291.402344 96.605469 291.433594 99.886719 C 291.59375 115.742188 291.535156 131.59375 291.492188 147.4375 C 291.476562 152.984375 289.253906 156.421875 285.199219 157.515625 C 279.148438 159.152344 273.828125 155.015625 273.769531 148.414062 C 273.675781 138.820312 273.742188 129.226562 273.742188 119.636719 Z M 350.472656 57.796875 C 350.671875 52.039062 345.601562 46.789062 339.777344 46.730469 C 334.144531 46.675781 329.113281 51.527344 328.914062 57.21875 C 328.710938 62.800781 333.5 67.949219 339.199219 68.285156 C 344.917969 68.617188 350.265625 63.636719 350.464844 57.789062 Z M 350.472656 57.796875 " fill-opacity="1" fill-rule="nonzero"/><path fill="#00ccff" d="M 146.011719 113.34375 C 146.011719 124.882812 146.03125 136.414062 146.011719 147.957031 C 146.003906 154.003906 142.585938 158.140625 137.40625 158.132812 C 132.640625 158.132812 128.28125 154.449219 128.355469 147.921875 C 128.605469 126.796875 128.40625 105.671875 128.507812 84.539062 C 128.515625 81.964844 127.769531 80.132812 125.980469 78.304688 C 110.941406 62.878906 96 47.359375 80.992188 31.898438 C 78.582031 29.425781 76.542969 26.785156 77.070312 23.140625 C 77.554688 19.765625 79.429688 17.167969 82.679688 15.921875 C 86.070312 14.625 89.296875 15.203125 91.945312 17.734375 C 94.554688 20.234375 97 22.898438 99.515625 25.488281 C 113.722656 40.171875 127.886719 54.898438 142.167969 69.511719 C 144.867188 72.277344 146.148438 75.226562 146.078125 79.148438 C 145.894531 90.546875 146.011719 101.945312 146.011719 113.34375 Z M 146.011719 113.34375 " fill-opacity="1" fill-rule="nonzero"/><path fill="#00ccff" d="M 229.488281 113.277344 C 229.488281 101.601562 229.546875 89.925781 229.445312 78.253906 C 229.417969 75.121094 230.382812 72.628906 232.546875 70.40625 C 249.285156 53.140625 265.964844 35.828125 282.71875 18.570312 C 286.722656 14.449219 291.945312 14.207031 295.679688 17.734375 C 299.589844 21.4375 299.566406 26.609375 295.320312 31.023438 C 280.285156 46.648438 265.226562 62.25 250.0625 77.742188 C 247.835938 80.015625 246.992188 82.296875 247.011719 85.441406 C 247.136719 106.421875 247.109375 127.414062 247.050781 148.40625 C 247.035156 155.535156 241.320312 159.898438 235.210938 157.5 C 231.316406 155.96875 229.460938 152.96875 229.476562 148.722656 C 229.527344 136.90625 229.496094 125.09375 229.496094 113.285156 Z M 229.488281 113.277344 " fill-opacity="1" fill-rule="nonzero"/></svg>